<svg xmlns="http://www.w3.org/2000/svg" width="130.908" height="169.411" viewBox="0 0 130.908 169.411"><defs><style>.a{fill:#695a69;}.b{fill:#f2d057;}.c{fill:#e17277;}.d{fill:#bf515a;}.e{fill:#95ffff;}.f{fill:#6eb1e2;}.g{fill:#80d7f0;}</style></defs><g transform="translate(-54.546)"><path class="a" d="M172.62,0H67.38L54.546,28.235H87.915l33.369-17.968,33.369,17.968h30.8Z"/><path class="b" d="M130.695,29.091,97.326,47.059H69.091V136.9H192.3V47.059H164.064ZM97.326,108.663V129.2H79.358V106.1h.093a8.983,8.983,0,0,1,17.783,0h.093Zm0-35.936V93.262H79.358V70.16h.093a8.983,8.983,0,0,1,17.783,0h.093Zm28.235,35.936V129.2H107.593V106.1h.093a8.983,8.983,0,0,1,17.783,0h.093v2.567Zm0-35.936V93.262H107.593V70.16h.093a8.983,8.983,0,0,1,17.783,0h.093v2.567Zm-2.567-23.1a7.7,7.7,0,1,1,7.7,7.7A7.7,7.7,0,0,1,122.994,49.626Zm30.8,59.037V129.2H135.828V106.1h.093a8.983,8.983,0,0,1,17.783,0h.093v2.567Zm0-35.936V93.262H135.828V70.16h.093a8.983,8.983,0,0,1,17.783,0h.093v2.567Zm28.235,35.936V129.2H164.064V106.1h.093a8.983,8.983,0,0,1,17.783,0h.093v2.567Zm-8.984-46.2a8.985,8.985,0,0,1,8.891,7.7h.093v23.1H164.064V70.16h.093A8.985,8.985,0,0,1,173.048,62.46Z" transform="translate(-9.411 -18.824)"/><path class="c" d="M113.752,131.337h2.474a8.983,8.983,0,0,0-17.783,0h15.308Z" transform="translate(-28.405 -80.001)"/><path class="c" d="M193.752,131.337h2.474a8.983,8.983,0,0,0-17.783,0h15.308Z" transform="translate(-80.169 -80.001)"/><path class="c" d="M273.752,131.337h2.474a8.983,8.983,0,0,0-17.783,0h15.308Z" transform="translate(-131.934 -80.001)"/><path class="c" d="M353.752,131.337h2.474a8.983,8.983,0,0,0-17.782,0h15.308Z" transform="translate(-183.699 -80.001)"/><path class="c" d="M113.752,233.155h2.474a8.983,8.983,0,0,0-17.783,0h15.308Z" transform="translate(-28.405 -145.883)"/><path class="c" d="M193.752,233.155h2.474a8.983,8.983,0,0,0-17.783,0h15.308Z" transform="translate(-80.169 -145.883)"/><path class="c" d="M273.752,233.155h2.474a8.983,8.983,0,0,0-17.783,0h15.308Z" transform="translate(-131.934 -145.883)"/><path class="c" d="M353.752,233.155h2.474a8.983,8.983,0,0,0-17.782,0h15.308Z" transform="translate(-183.699 -145.883)"/><path class="c" d="M69.091,375.614H192.3V334.545H69.091Zm94.973-12.834V342.245h17.968v23.1H164.064Zm-28.235,0V342.245H153.8v23.1H135.829Zm-28.235,0V342.245h17.968v23.1H107.594Zm-28.235,0V342.245H97.327v23.1H79.358Z" transform="translate(-9.411 -216.471)"/><rect class="d" width="123.208" height="10.267" transform="translate(59.68 159.144)"/><path class="a" d="M237.219,73.155a7.7,7.7,0,1,0-7.7,7.7A7.7,7.7,0,0,0,237.219,73.155Zm-7.7,5.133a5.134,5.134,0,1,1,5.134-5.133A5.133,5.133,0,0,1,229.518,78.289Z" transform="translate(-108.235 -42.353)"/><path class="e" d="M230.595,75.607a5.137,5.137,0,0,1,.968-.754,5.131,5.131,0,1,0,7.8,4.384,5.115,5.115,0,0,1-1.5,3.63Z" transform="translate(-112.941 -48.434)"/><path class="e" d="M243.636,72.727a5.134,5.134,0,0,1,5.133,5.134A5.133,5.133,0,0,0,243.636,72.727Z" transform="translate(-122.353 -47.059)"/><path class="f" d="M236.981,72.727a5.205,5.205,0,0,0-3.63,1.5l7.259,7.259a5.133,5.133,0,0,0-3.629-8.763Z" transform="translate(-115.698 -47.059)"/><path class="e" d="M105.454,385.455v10.267h10.268Z" transform="translate(-32.941 -249.413)"/><path class="g" d="M118.288,395.722V385.455H105.454l10.268,10.267Z" transform="translate(-32.941 -249.413)"/><rect class="f" width="12.834" height="5.134" transform="translate(72.513 128.342)"/><path class="a" d="M113.582,379.464h2.567v-23.1H98.181v23.1h15.4Zm-12.834-20.535h12.834v5.134H100.748Zm0,7.7h12.834V376.9H100.748Z" transform="translate(-28.234 -230.588)"/><path class="e" d="M185.454,385.455v10.267h10.268Z" transform="translate(-84.705 -249.413)"/><path class="g" d="M198.288,395.722V385.455H185.454l10.268,10.267Z" transform="translate(-84.705 -249.413)"/><rect class="f" width="12.834" height="5.134" transform="translate(100.749 128.342)"/><path class="a" d="M193.582,379.464h2.567v-23.1H178.181v23.1h15.4Zm-12.834-20.535h12.834v5.134H180.748Zm0,7.7h12.834V376.9H180.748Z" transform="translate(-79.999 -230.588)"/><path class="e" d="M265.454,385.455v10.267h10.268Z" transform="translate(-136.47 -249.413)"/><path class="g" d="M278.288,395.722V385.455H265.454l10.268,10.267Z" transform="translate(-136.47 -249.413)"/><rect class="f" width="12.834" height="5.134" transform="translate(128.984 128.342)"/><path class="a" d="M273.582,379.464h2.567v-23.1H258.181v23.1h15.4Zm-12.834-20.535h12.834v5.134H260.748v-5.134Zm0,7.7h12.834V376.9H260.748V366.63Z" transform="translate(-131.764 -230.588)"/><path class="e" d="M345.454,385.455v10.267h10.268Z" transform="translate(-188.235 -249.413)"/><path class="g" d="M358.288,395.722V385.455H345.454l10.268,10.267Z" transform="translate(-188.235 -249.413)"/><rect class="f" width="12.834" height="5.134" transform="translate(157.219 128.342)"/><path class="a" d="M353.582,379.464h2.567v-23.1H338.181v23.1h15.4Zm-12.834-20.535h12.834v5.134H340.748v-5.134Zm0,7.7h12.834V376.9H340.748V366.63Z" transform="translate(-183.529 -230.588)"/><path class="e" d="M105.454,286.631h10.267l-10.267-10.267Z" transform="translate(-32.941 -178.824)"/><path class="g" d="M105.454,276.364l10.267,10.267h2.567V276.364Z" transform="translate(-32.941 -178.824)"/><rect class="f" width="12.834" height="5.134" transform="translate(72.513 89.839)"/><path class="a" d="M113.582,247.273h-15.4v23.1h17.968v-23.1h-2.567Zm0,20.535H100.748V257.54h12.834Zm0-12.834H100.748V249.84h12.834Z" transform="translate(-28.234 -160.001)"/><path class="e" d="M185.454,286.631h10.267l-10.267-10.267Z" transform="translate(-84.705 -178.824)"/><path class="g" d="M185.454,276.364l10.267,10.267h2.567V276.364Z" transform="translate(-84.705 -178.824)"/><rect class="f" width="12.834" height="5.134" transform="translate(100.749 89.839)"/><path class="a" d="M193.582,247.273h-15.4v23.1h17.968v-23.1h-2.567Zm0,20.535H180.748V257.54h12.834Zm0-12.834H180.748V249.84h12.834Z" transform="translate(-79.999 -160.001)"/><path class="e" d="M265.454,286.631h10.267l-10.267-10.267Z" transform="translate(-136.47 -178.824)"/><path class="g" d="M265.454,276.364l10.267,10.267h2.567V276.364Z" transform="translate(-136.47 -178.824)"/><rect class="f" width="12.834" height="5.134" transform="translate(128.984 89.839)"/><path class="a" d="M273.582,247.273h-15.4v23.1h17.968v-23.1h-2.567Zm0,20.535H260.748V257.54h12.834Zm0-12.834H260.748V249.84h12.834Z" transform="translate(-131.764 -160.001)"/><path class="e" d="M345.454,286.631h10.267l-10.267-10.267Z" transform="translate(-188.235 -178.824)"/><path class="g" d="M345.454,276.364l10.267,10.267h2.567V276.364Z" transform="translate(-188.235 -178.824)"/><rect class="f" width="12.834" height="5.134" transform="translate(157.219 89.839)"/><path class="a" d="M353.582,247.273h-15.4v23.1h17.968v-23.1h-2.567Zm0,20.535H340.748V257.54h12.834Zm0-12.834H340.748V249.84h12.834Z" transform="translate(-183.529 -160.001)"/><path class="e" d="M105.454,184.812h10.267l-10.267-10.267Z" transform="translate(-32.941 -112.941)"/><path class="g" d="M105.454,174.545l10.267,10.267h2.567V174.545Z" transform="translate(-32.941 -112.941)"/><rect class="f" width="12.834" height="5.134" transform="translate(72.513 53.903)"/><path class="a" d="M113.582,145.455h-15.4v23.1h17.968v-23.1h-2.567Zm0,20.534H100.748V155.722h12.834Zm0-12.834H100.748v-5.133h12.834Z" transform="translate(-28.234 -94.118)"/><path class="e" d="M185.454,184.812h10.267l-10.267-10.267Z" transform="translate(-84.705 -112.941)"/><path class="g" d="M185.454,174.545l10.267,10.267h2.567V174.545Z" transform="translate(-84.705 -112.941)"/><rect class="f" width="12.834" height="5.134" transform="translate(100.749 53.903)"/><path class="a" d="M193.582,145.455h-15.4v23.1h17.968v-23.1h-2.567Zm0,20.534H180.748V155.722h12.834Zm0-12.834H180.748v-5.133h12.834Z" transform="translate(-79.999 -94.118)"/><path class="e" d="M265.454,184.812h10.267l-10.267-10.267Z" transform="translate(-136.47 -112.941)"/><path class="g" d="M265.454,174.545l10.267,10.267h2.567V174.545Z" transform="translate(-136.47 -112.941)"/><rect class="f" width="12.834" height="5.134" transform="translate(128.984 53.903)"/><path class="a" d="M273.582,145.455h-15.4v23.1h17.968v-23.1h-2.567Zm0,20.534H260.748V155.722h12.834Zm0-12.834H260.748v-5.133h12.834Z" transform="translate(-131.764 -94.118)"/><path class="e" d="M345.454,184.812h10.267l-10.267-10.267Z" transform="translate(-188.235 -112.941)"/><path class="g" d="M345.454,174.545l10.267,10.267h2.567V174.545Z" transform="translate(-188.235 -112.941)"/><rect class="f" width="12.834" height="5.134" transform="translate(157.219 53.903)"/><path class="a" d="M338.182,148.021v20.535H356.15v-23.1H338.182Zm15.4,17.968H340.749V155.721h12.834Zm0-17.968v5.134H340.749v-5.134Z" transform="translate(-183.53 -94.118)"/></g></svg>