<svg xmlns="http://www.w3.org/2000/svg" width="32" height="32" viewBox="0 0 32 32"><defs><style>.a{fill:#6f5081;}</style></defs><g transform="translate(0 -0.001)"><g transform="translate(6.294 10.715)"><path class="a" d="M101.771,171.6a.625.625,0,1,0,0,.884A.625.625,0,0,0,101.771,171.6Z" transform="translate(-100.704 -171.42)"/></g><g transform="translate(0 24.5)"><path class="a" d="M15.825,395.47a2.188,2.188,0,0,0-1.763-3.483H3.437a2.186,2.186,0,0,0-1.762,3.482A3.127,3.127,0,0,0,0,398.237v.625a.625.625,0,0,0,.625.625h16.25a.625.625,0,0,0,.625-.625v-.625A3.127,3.127,0,0,0,15.825,395.47ZM2.774,393.511a.931.931,0,0,1,.663-.274H14.062a.937.937,0,1,1,0,1.875H3.437a.938.938,0,0,1-.663-1.6ZM1.25,398.237a1.877,1.877,0,0,1,1.875-1.875h11.25a1.877,1.877,0,0,1,1.875,1.875Z" transform="translate(0 -391.987)"/></g><g transform="translate(0.001 0.001)"><g transform="translate(0 0)"><path class="a" d="M31.438,26.259a3.936,3.936,0,0,0-.753-.865l-2.92-2.547a.62.62,0,0,0-.249-.217L25.75,21.09l-8.174-7.131a1.872,1.872,0,0,0-.549-2.985l.756-.756A2.5,2.5,0,0,0,20.2,9.572a2.5,2.5,0,0,0,0-3.536l-5.3-5.3a2.5,2.5,0,0,0-4.182,2.413L3.167,10.692a2.515,2.515,0,0,0-.647-.085A2.5,2.5,0,0,0,.752,14.875l5.3,5.3a2.5,2.5,0,0,0,4.182-2.413l.755-.755a1.875,1.875,0,0,0,2.986.548l8.707,10a.628.628,0,0,0,.085.106c.011.011.023.021.035.032L25.4,30.68c.064.076.133.151.2.223A3.717,3.717,0,0,0,28.245,32a3.836,3.836,0,0,0,.526-.036,3.782,3.782,0,0,0,2.79-1.932A3.7,3.7,0,0,0,31.438,26.259ZM12.242,1.617a1.25,1.25,0,0,1,1.768,0l5.3,5.3a1.25,1.25,0,0,1-1.767,1.768l-5.3-5.3h0A1.251,1.251,0,0,1,12.242,1.617ZM8.707,19.294a1.252,1.252,0,0,1-1.768,0l-5.3-5.3A1.25,1.25,0,0,1,3.4,12.223l5.3,5.3A1.251,1.251,0,0,1,8.707,19.294Zm2.631-4.4L9.591,16.643l-5.3-5.3,7.071-7.071,5.3,5.3-1.751,1.751-.017.017L11.36,14.873Zm2.232,1.3,0,0-.44.44a.625.625,0,0,1-.892-.876l3.55-3.55a.625.625,0,0,1,1.06.449.619.619,0,0,1-.183.442l-.438.438-.009.009Zm1.294.473,1.827-1.827,7.734,6.746L21.6,24.414Zm7.561,8.687,2.944-2.944.944.824L23.248,26.3Zm8.046,4.063a2.542,2.542,0,0,1-1.871,1.3,2.483,2.483,0,0,1-2.113-.708c-.048-.048-.094-.1-.137-.149l-.006-.007L24.07,27.25l3.187-3.187,2.609,2.276.006.005a2.691,2.691,0,0,1,.516.593A2.468,2.468,0,0,1,30.471,29.422Z" transform="translate(-0.021 -0.001)"/></g></g><g transform="translate(8.062 6.295)"><path class="a" d="M132.7,100.89a.625.625,0,0,0-.884,0l-2.652,2.652a.625.625,0,0,0,.884.884l2.652-2.652A.625.625,0,0,0,132.7,100.89Z" transform="translate(-128.985 -100.707)"/></g></g></svg>