<svg xmlns="http://www.w3.org/2000/svg" width="29.936" height="29.564" viewBox="0 0 29.936 29.564"><defs><style>.a{fill:#6f5081;}</style></defs><g transform="translate(-4.53 -8)"><g transform="translate(4.905 8)"><g transform="translate(0)"><path class="a" d="M28.818,9.3a2.6,2.6,0,0,0-3.675,0l-2.606,2.608V5.048a2.581,2.581,0,0,0-.761-1.837L19.327.761A2.581,2.581,0,0,0,17.489,0H2.616a2.6,2.6,0,0,0-2.6,2.6V26.965a2.6,2.6,0,0,0,2.6,2.6H19.939a2.6,2.6,0,0,0,2.6-2.6v-7.7l6.281-6.286A2.6,2.6,0,0,0,28.818,9.3ZM17.341,1.732a.945.945,0,0,1,.761.254l2.45,2.45a.945.945,0,0,1,.254.761H17.341Zm3.464,25.233a.867.867,0,0,1-.866.866H2.616a.867.867,0,0,1-.866-.866V2.6a.867.867,0,0,1,.866-.866H15.608V6.063a.866.866,0,0,0,.866.866h4.331v6.717L18.25,16.2l-1.224,1.224a.866.866,0,0,0-.209.339l-1.225,3.675a.866.866,0,0,0,1.1,1.1l3.675-1.225A.865.865,0,0,0,20.7,21.1L20.805,21ZM18.863,18.04l1.225,1.225-.468.468-1.837.612.612-1.837Zm2.45,0-1.225-1.225,4.163-4.167,1.225,1.225Zm6.281-6.286-.893.894-1.225-1.225.893-.894a.866.866,0,1,1,1.225,1.225Z" transform="translate(-0.018)"/></g></g><g transform="translate(4.53 10.519)"><path class="a" d="M73.01,150H60.884a.866.866,0,1,0,0,1.732H73.01a.866.866,0,1,0,0-1.732Z" transform="translate(-60.018 -150)"/></g><g transform="translate(4.53 13.984)"><path class="a" d="M69.545,210H60.884a.866.866,0,1,0,0,1.732h8.661a.866.866,0,1,0,0-1.732Z" transform="translate(-60.018 -210)"/></g><g transform="translate(4.53 17.448)"><path class="a" d="M69.545,270H60.884a.866.866,0,0,0,0,1.732h8.661a.866.866,0,0,0,0-1.732Z" transform="translate(-60.018 -270)"/></g><g transform="translate(4.53 20.913)"><path class="a" d="M69.545,330H60.884a.866.866,0,0,0,0,1.732h8.661a.866.866,0,0,0,0-1.732Z" transform="translate(-60.018 -330)"/></g><g transform="translate(11.459 26.225)"><path class="a" d="M186.081,422h-5.2a.866.866,0,1,0,0,1.732h5.2a.866.866,0,0,0,0-1.732Z" transform="translate(-180.018 -422)"/></g></g></svg>