<svg xmlns="http://www.w3.org/2000/svg" width="200.743" height="146.956" viewBox="0 0 200.743 146.956"><defs><style>.a{fill:#ff7058;}.b{fill:#84dbff;}.c{fill:#cdd6e0;}.d{fill:#f2f2f2;}.e{fill:#ffd15c;}.f{fill:#334a5e;}.g{fill:#40596b;}.h{fill:#acb3ba;}</style></defs><g transform="translate(0 -68.597)"><path class="a" d="M372.159,164.8h-41.45v75.126h67.912V206.112l-7.92-27.374A19.3,19.3,0,0,0,372.159,164.8" transform="translate(-201.057 -58.487)"/><path class="b" d="M403.336,220.395l-7.059-24.4a9.932,9.932,0,0,0-9.489-7.13H354.773v31.531Z" transform="translate(-215.687 -73.117)"/><path class="c" d="M403.319,220.363H354.731V188.832Z" transform="translate(-215.661 -73.098)"/><path class="d" d="M403.336,220.395l-7.059-24.4a9.932,9.932,0,0,0-9.489-7.13H354.773Z" transform="translate(-215.687 -73.117)"/><path class="e" d="M12.545,68.6H117.107a12.547,12.547,0,0,1,12.545,12.545V181.434H0V81.142A12.545,12.545,0,0,1,12.545,68.6"/><path class="d" d="M154.22,68.651V101.8l-4.851-4.851-5.085,5.085L139.2,96.949l-5.081,5.085-5.089-5.085-5.148,5.085-5.077-5.085-4.909,4.91V68.651Z" transform="translate(-69.246 -0.033)"/><path class="f" d="M200.769,333.578v14.176H.043V333.578H20.994a28.744,28.744,0,0,1,50.181,0h67.411a28.7,28.7,0,0,1,50.136,0Z" transform="translate(-0.026 -152.148)"/><path class="g" d="M406.291,361.272a20.031,20.031,0,1,1-20.035-20.035,20.035,20.035,0,0,1,20.035,20.035" transform="translate(-222.652 -165.754)"/><path class="h" d="M412.889,379.864a8.05,8.05,0,1,1-8.046-8.046,8.046,8.046,0,0,1,8.046,8.046" transform="translate(-241.231 -184.346)"/><path class="g" d="M106.406,361.272a20.035,20.035,0,1,1-20.035-20.035,20.038,20.038,0,0,1,20.035,20.035" transform="translate(-40.329 -165.754)"/><path class="h" d="M113,379.864a8.048,8.048,0,1,1-8.046-8.046A8.044,8.044,0,0,1,113,379.864" transform="translate(-58.915 -184.346)"/></g></svg>