<svg xmlns="http://www.w3.org/2000/svg" width="31.765" height="25.572" viewBox="0 0 31.765 25.572"><defs><style>.a{fill:#6f5081;fill-rule:evenodd;}</style></defs><g transform="translate(-69.38 -0.79)"><path class="a" d="M92.049,7.879c5.692.072,9.01,3.563,5.242,8.342a19.145,19.145,0,0,1-8.56,5.774l-.562.191c-.364.119-.732.232-1.09.341-.841.238-1.669.45-2.466.606-.852.174-1.676.3-2.473.392-.569.055-1.121.092-1.652.1-3.628.092-6.36-.9-7.249-3.008-1.073-2.538,1.1-6.077,5.45-8.771-3.222,1.277-9.064,4.343-9.31,8.69v.552a5.706,5.706,0,0,0,.255,1.363c.927,2.936,5.3,4.3,10.856,3.815.542-.048,1.09-.109,1.652-.191.8-.119,1.632-.286,2.473-.477s1.632-.422,2.466-.681c.184-.065.368-.119.552-.181.375-.119.743-.249,1.1-.385,4.82-1.751,8.4-4.088,10.485-6.758a8.332,8.332,0,0,0,1.925-4.217v-.961C100.814,9.234,97.1,7.364,92.049,7.879Zm-3.7-1.567a1.638,1.638,0,0,0,.378-.048c.8-.2,1.2-1.063,1.237-2.081.037-1.08-.341-1.979-1.237-2.109a1.093,1.093,0,0,0-.238,0A1.475,1.475,0,0,0,87.079,3.12a3.362,3.362,0,0,0-.2,1.08,2.929,2.929,0,0,0,.2,1.267,1.325,1.325,0,0,0,1.274.845Zm-.027.341a3.9,3.9,0,0,0-.927.1l.075.1.136.249.109.255.092.266.065.276.048.273.027.286V9.32l-.017.286-.037.283-.037.283-.055.286-.055.283-.058.276-.061.276-.055.266-.065.255-.065.249-.065.238-.055.228-.055.221-.027.136-.037.157-.037.164-.027.174-.037.184-.027.157v.037l-.037.2-.034.2-.027.211-.037.221-.027.218-.037.221-.027.228-.037.221-.027.228-.027.228-.027.228h0c.055.661.1,1.219.129,1.54a1.662,1.662,0,0,0,.218.807,1.039,1.039,0,0,0,.862.4,1.284,1.284,0,0,0,.79-.286,1.56,1.56,0,0,0,.364-.916c.146-.944.569-4.043.937-5.372.521-1.914,1.778-5.4-1.3-5.665a3.014,3.014,0,0,0-.405-.024Zm-3.747-.981h0c1.192,0,1.751-1.1,1.751-2.439S85.806.8,84.613.79h0c-1.226,0-1.785,1.093-1.785,2.456s.559,2.432,1.768,2.432Zm-2.456,5.655c.109.467.218.9.31,1.284.378,1.529.743,5.089.882,6.159s.511,1.311,1.281,1.386c.763-.075,1.148-.3,1.274-1.386s.521-4.622.889-6.152c.092-.385.211-.818.32-1.284.341-1.4.613-3.066,0-4.115a3.268,3.268,0,0,0-4.939,0c-.627,1.063-.341,2.711,0,4.115ZM80.492,6.254a1.635,1.635,0,0,0,.375.048,1.328,1.328,0,0,0,1.277-.862,3.209,3.209,0,0,0,.2-1.267,3.665,3.665,0,0,0-.2-1.08A1.485,1.485,0,0,0,80.73,2.047a1.094,1.094,0,0,0-.238,0c-.889.129-1.274,1.022-1.237,2.109C79.279,5.191,79.684,6.053,80.492,6.254Zm-.364,11.459a1.478,1.478,0,0,0,.364.916,1.284,1.284,0,0,0,.79.286,1.056,1.056,0,0,0,.862-.4,1.928,1.928,0,0,0,.218-.807c.027-.32.075-.879.129-1.529v-.02l-.027-.228-.027-.228-.037-.228-.027-.221-.027-.228-.037-.221-.027-.218-.037-.221-.048-.221-.027-.2-.034-.2v-.027l-.027-.167-.037-.184-.037-.174L82,13.029l-.037-.157-.037-.136-.044-.221-.065-.228-.054-.238L81.7,11.8l-.065-.255-.065-.266-.058-.266-.065-.276-.055-.283-.044-.286-.037-.283L81.275,9.6l-.027-.286V8.465l.027-.286.048-.273.065-.276.082-.266.119-.255.136-.249.075-.1a3.962,3.962,0,0,0-.927-.1,3.014,3.014,0,0,0-.4.017c-3.066.266-1.822,3.747-1.3,5.665.378,1.328.8,4.428.947,5.372Z" transform="translate(0 0)"/></g></svg>