<svg xmlns="http://www.w3.org/2000/svg" xmlns:xlink="http://www.w3.org/1999/xlink" width="269" height="478" viewBox="0 0 269 478">
  <defs>
    <clipPath id="clip-Artboard_3">
      <rect width="269" height="478"/>
    </clipPath>
  </defs>
  <g id="Artboard_3" data-name="Artboard – 3" clip-path="url(#clip-Artboard_3)">
    <g id="Group_146" data-name="Group 146" transform="translate(-13508 10018)">
      <g id="undraw_gone_shopping_vwmc" transform="translate(13507.658 -9854.635)">
        <path id="Path_246" data-name="Path 246" d="M655.094,406.335l3.932,9.174,24.115,31.979s16.514,17.824,7.339,18.873-15.2-16.514-15.2-16.514L646.968,421.8l-3.145-12.844Z" transform="translate(-554.337 -298.473)" fill="#d8aeb4"/>
        <path id="Path_247" data-name="Path 247" d="M698.625,340.168l3.8,1.064s17.061,45.323,15.488,50.827-8.65,12.32-11.8,11.8S698.625,340.168,698.625,340.168Z" transform="translate(-609.926 -269.526)" fill="#fff"/>
        <path id="Path_248" data-name="Path 248" d="M837.975,750.485s1.669,8.361-3.346,5.015S827,745.682,827,745.682Z" transform="translate(-802.366 -446.927)" fill="#fff"/>
        <path id="Path_249" data-name="Path 249" d="M748.661,418.916S801.871,606.595,783,612.1s-46.658-.524-46.4-4.194,4.98-76.277,4.98-76.277-27.523,96.46-61.6,73.918-26.474-26.736-23.329-28.309,50.589-76.277,50.327-90.169.524-57.4,6.291-63.957Z" transform="translate(-653.671 -303.976)" fill="#493853"/>
        <path id="Path_251" data-name="Path 251" d="M788.263,288.754a11.008,11.008,0,0,0,1.368-14.841c.221.208.438.424.646.653a11.009,11.009,0,0,1-16.332,14.767c-.208-.229-.4-.467-.585-.708A11.008,11.008,0,0,0,788.263,288.754Z" transform="translate(-727.07 -240.542)" fill="#fff"/>
        <ellipse id="Ellipse_21" data-name="Ellipse 21" cx="22.673" cy="22.673" rx="22.673" ry="22.673" transform="translate(39.552 5.505)" fill="#fff"/>
        <path id="Path_252" data-name="Path 252" d="M678.62,760.936s6.029,6.029,0,6.029-11.8-3.932-11.8-3.932Z" transform="translate(-555.321 -453.6)" fill="#fff"/>
        <path id="Path_253" data-name="Path 253" d="M767.345,286.053s-3.932,16.252-1.049,19.4,9.174,5.5,9.174,5.5l-1.049,29.358s-12.057-4.194-12.582-4.718-11.271-17.562-11.271-17.562l-10.485-9.961s15.989-7.6,11.271-20.708S767.345,286.053,767.345,286.053Z" transform="translate(-690.704 -243.72)" fill="#d8aeb4"/>
        <ellipse id="Ellipse_22" data-name="Ellipse 22" cx="13.63" cy="13.63" rx="13.63" ry="13.63" transform="translate(55.673 50.367) rotate(-99.217)" fill="#d8aeb4"/>
        <path id="Path_254" data-name="Path 254" d="M737.908,382.953S731.879,363.031,729,360.41s-9.961-27.261-9.961-27.261,4.456-6.029,8.126-6.029,7.077,1.311,11.271,5.242c1.975,1.852,5.577,3.889,8.836,5.526a9.776,9.776,0,0,0,13.233-4.417c.652-1.385.866-2.711.211-3.731,0,0,9.7,2.621,10.223,6.291s0,11.271.786,12.844,3.146,3.932,2.1,13.892,1.094,22.556,1.094,22.556C765.121,394.668,751.556,388.9,737.908,382.953Z" transform="translate(-678.304 -263.819)" fill="#fff"/>
        <ellipse id="Ellipse_23" data-name="Ellipse 23" cx="11.533" cy="7.864" rx="11.533" ry="7.864" transform="translate(55.541 14.679)" fill="#fff"/>
        <ellipse id="Ellipse_24" data-name="Ellipse 24" cx="11.009" cy="11.009" rx="11.009" ry="11.009" transform="translate(36.406 0)" fill="#fff"/>
        <path id="Path_255" data-name="Path 255" d="M811.9,240.291A11.007,11.007,0,0,0,822.87,230.2c.025.3.041.607.041.916a11.009,11.009,0,0,1-22.018.009v-.009c0-.309.016-.615.041-.917A11.008,11.008,0,0,0,811.9,240.291Z" transform="translate(-772.351 -221.419)" fill="#fff"/>
        <path id="Path_256" data-name="Path 256" d="M499.165,420.53h3.662l7.319,63.836-24.138-.81Z" transform="translate(-433.793 -233.284)" fill="#6c63ff"/>
        <path id="Path_257" data-name="Path 257" d="M499.165,420.53h3.662l7.319,63.836-24.138-.81Z" transform="translate(-433.793 -233.284)" fill="#fff" opacity="0.746" style="isolation: isolate"/>
        <path id="Path_258" data-name="Path 258" d="M550.193,419.08l4.472,64.247-54.785,4.067-4.472-62.621Z" transform="translate(-483.6 -232.65)" fill="#fff"/>
        <ellipse id="Ellipse_25" data-name="Ellipse 25" cx="0.816" cy="0.816" rx="0.816" ry="0.816" transform="translate(47.332 191.307)" opacity="0.2" style="isolation: isolate"/>
        <ellipse id="Ellipse_26" data-name="Ellipse 26" cx="0.816" cy="0.816" rx="0.816" ry="0.816" transform="translate(30.254 193.338)" opacity="0.2" style="isolation: isolate"/>
        <path id="Path_259" data-name="Path 259" d="M804.208,544.645h.405c0-.174-.287-17.326,9.563-18.907a5.18,5.18,0,0,1,4.714,1.305c4.067,4.033,2.385,15.425,2.368,15.537l.4.062c.073-.478,1.727-11.712-2.486-15.886a5.553,5.553,0,0,0-5.063-1.423C803.916,526.965,804.2,544.471,804.208,544.645Z" transform="translate(-773.341 -350.486)" fill="#3f3d56"/>
        <path id="Path_260" data-name="Path 260" d="M802.052,402.142l1.311,14.679-2.621,44.036s-6.029,22.28,3.146,21.756,5.767-23.329,5.767-23.329l4.194-51.114Z" transform="translate(-762.107 -296.638)" fill="#d8aeb4"/>
        <path id="Path_261" data-name="Path 261" d="M804.172,331.315l-6.815,3.67s-9.174,62.355-3.932,68.384,15.989,8.388,16.514,6.029,2.359-50.3,2.359-50.3Z" transform="translate(-756.626 -265.653)" fill="#fff"/>
      </g>
      <g id="undraw_invest_88iw" transform="translate(13657.932 -10018)">
        <path id="Path_285" data-name="Path 285" d="M613.846,317s.444,11.55-2.221,14.215,13.327,11.994,13.327,11.994l9.329-14.659s-3.554-6.219-2.665-11.55Z" transform="translate(-566.853 -281.754)" fill="#d8a7a7"/>
        <path id="Path_286" data-name="Path 286" d="M305.5,683.5v11.105l13.771.888-.888-11.994Z" transform="translate(-287.159 -413.485)" fill="#d8a7a7"/>
        <path id="Path_287" data-name="Path 287" d="M458.271,683.5v11.105l-13.771.888.888-11.994Z" transform="translate(-364.412 -413.485)" fill="#d8a7a7"/>
        <path id="Path_288" data-name="Path 288" d="M556.643,565.451s-7.108,25.764-2.665,46.2c0,0,0,8.884,1.777,10.661s2.221,1.777.889,2.665-4,3.109-2.665,4.442,1.777,3.109.888,3.554-1.777,1.333-.888,3.109-4.442,49.308-4.442,49.308-5.331,5.775,0,6.219,14.215,2.665,15.1-.888,8-53.75,8-53.75.889-1.333,2.665-3.554.888-3.109.888-3.554,9.329-42.645,9.329-42.645,13.771,47.976,15.1,48.864,1.777.888,1.777,2.221-.888,2.221,0,3.554a23.074,23.074,0,0,1,1.333,2.221s2.221,49.752,6.663,49.752,17.769-.888,16.436-4.886-3.11-3.109-3.11-3.109,3.11-40.868-4.442-52.862V623.2c0-.888.444-1.333,0-2.221s1.333-53.75-7.108-56.86S556.643,565.451,556.643,565.451Z" transform="translate(-531.194 -418.484)" fill="#493853"/>
        <path id="Path_289" data-name="Path 289" d="M537.992,859.054s-2.221-3.554-5.331-3.554-5.331,3.554-5.331,3.554l-8,11.106s-11.55,7.108-7.107,11.105,16.436,1.777,16.436,1.777,9.773-7.108,11.106-7.552a28.2,28.2,0,0,0,5.331-3.11c.444-.444-.888-16.436-2.221-15.326S540.658,861.719,537.992,859.054Z" transform="translate(-511.211 -581.043)" fill="#fff"/>
        <path id="Path_290" data-name="Path 290" d="M694.5,859.054s2.221-3.554,5.331-3.554,5.331,3.554,5.331,3.554l8,11.106s11.55,7.108,7.107,11.105-16.436,1.777-16.436,1.777-9.773-7.108-11.105-7.552a28.206,28.206,0,0,1-5.331-3.11c-.444-.444.888-16.436,2.221-15.326S691.833,861.719,694.5,859.054Z" transform="translate(-609.08 -581.043)" fill="#fff"/>
        <ellipse id="Ellipse_38" data-name="Ellipse 38" cx="15.992" cy="15.992" rx="15.992" ry="15.992" transform="translate(38.775 9.703)" fill="#d8a7a7"/>
        <path id="Path_291" data-name="Path 291" d="M589.986,341.776s-2.989.165-4.382-4.36L562,354.658l9.773,26.209s1.333,14.215,0,18.213-2.221,7.108-2.221,8.884-9.329,31.539-5.775,32.872,57.748,6.663,59.081-2.221-4.442-67.521-4.442-67.521l9.329-22.655L605.065,333.6S602.868,342.664,589.986,341.776Z" transform="translate(-539.438 -290.982)" fill="#fff"/>
        <path id="Path_292" data-name="Path 292" d="M547.662,444.5l-1.777,13.771a70.817,70.817,0,0,0-5.331,34.2l-.444,12.882s-4.442,22.211,4.442,23.1,3.109-24.432,3.109-24.432l4.886-11.994,5-26.681,2.55-18.63Z" transform="translate(-526.655 -352.616)" fill="#d8a7a7"/>
        <path id="Path_293" data-name="Path 293" d="M564.5,379.5l-6.441.666s-4.22,31.317-2.888,31.317,16.436,3.554,16.88,2.665S564.5,379.5,564.5,379.5Z" transform="translate(-535.5 -316.49)" fill="#fff"/>
        <path id="Path_294" data-name="Path 294" d="M599.733,246.959l-2.883-1.048s6.028-6.028,14.414-5.5l-2.359-2.359s5.765-2.1,11.007,3.407c2.755,2.893,5.943,6.294,7.931,10.124h3.087l-1.288,2.577,4.51,2.577-4.629-.463a13,13,0,0,1-.438,6.674l-1.048,2.883s-4.193-8.386-4.193-9.435v2.621s-2.883-2.359-2.883-3.931l-1.572,1.834-.786-2.883-9.7,2.883,1.572-2.359-6.028.786,2.359-2.883s-6.814,3.407-7.076,6.29-3.669,6.552-3.669,6.552l-1.572-2.621S592.133,250.89,599.733,246.959Z" transform="translate(-557.305 -237.656)" fill="#fff"/>
        <ellipse id="Ellipse_39" data-name="Ellipse 39" cx="29.652" cy="42.201" rx="29.652" ry="42.201" transform="translate(54.767 152.742)" fill="#3f3d56"/>
        <ellipse id="Ellipse_40" data-name="Ellipse 40" cx="29.652" cy="42.201" rx="29.652" ry="42.201" transform="translate(54.767 152.742)" fill="#493853" opacity="0.05"/>
        <ellipse id="Ellipse_41" data-name="Ellipse 41" cx="29.652" cy="42.201" rx="29.652" ry="42.201" transform="translate(58.765 152.742)" fill="#4f3b5c"/>
        <path id="Path_298" data-name="Path 298" d="M25.431,0C39.477,0,50.863,16.2,50.863,36.195S39.477,72.389,25.431,72.389,0,56.184,0,36.195,11.386,0,25.431,0Z" transform="translate(62.985 158.748)" fill="#493853"/>
        <path id="Path_295" data-name="Path 295" d="M702.666,672.537v-4.249A9.866,9.866,0,0,1,697,666.437l.889-2.818a9.056,9.056,0,0,0,5.332,1.809,4.084,4.084,0,0,0,4.407-4.122c0-2.314-1.444-3.744-4.185-5.006-3.777-1.682-6.11-3.618-6.11-7.277a6.614,6.614,0,0,1,5.592-6.773V638h2.3v4.081a9.009,9.009,0,0,1,4.814,1.472l-.926,2.777a8.183,8.183,0,0,0-4.666-1.43,3.555,3.555,0,0,0-3.925,3.618c0,2.187,1.37,3.281,4.592,4.8,3.814,1.767,5.74,3.954,5.74,7.7A7.04,7.04,0,0,1,705,668.162v4.375Z" transform="translate(-614.469 -460.16)" fill="#fff"/>
        <path id="Path_296" data-name="Path 296" d="M692.832,433.5v18.213s.444,22.211-7.107,35.982l-4,8.884s-8,25.765-12.882,17.769,5.331-21.322,5.331-21.322l5.782-33.814-3.561-22.6Z" transform="translate(-598.085 -346.503)" fill="#d8a7a7"/>
        <path id="Path_297" data-name="Path 297" d="M686.054,364.5l8.662,1.111s10.439,31.762,7.774,33.094-19.99,2.221-19.99,2.221Z" transform="translate(-606.41 -308.154)" fill="#fff"/>
      </g>
    </g>
  </g>
</svg>
