<svg xmlns="http://www.w3.org/2000/svg" width="31.505" height="31.506" viewBox="0 0 31.505 31.506"><defs><style>.a{fill:#6f5081;}</style></defs><g transform="translate(-0.007)"><g transform="translate(4.191 27.814)"><path class="a" d="M69.053,452.181a.615.615,0,1,0,.18.435A.62.62,0,0,0,69.053,452.181Z" transform="translate(-68.003 -452.001)"/></g><g transform="translate(27.848 11.077)"><path class="a" d="M453.5,180.188a.614.614,0,1,0,.181.435A.619.619,0,0,0,453.5,180.188Z" transform="translate(-452.454 -180.008)"/></g><g transform="translate(0.007)"><path class="a" d="M31.332.18A.616.616,0,0,0,30.9,0H15.759a.615.615,0,0,0-.615.615v1.76L9.311,3.939a.615.615,0,0,0-.435.754L11.9,15.974,9.284,18.59a1.845,1.845,0,0,0-1.524-.806H1.853A1.848,1.848,0,0,0,.007,19.63V29.66a1.848,1.848,0,0,0,1.846,1.846H7.76a1.849,1.849,0,0,0,1.792-1.4l.732.638a3.1,3.1,0,0,0,2.038.764H30.9a.615.615,0,0,0,.615-.615V.615A.616.616,0,0,0,31.332.18ZM8.375,29.66a.616.616,0,0,1-.615.615H1.853a.616.616,0,0,1-.615-.615V19.63a.616.616,0,0,1,.615-.615H4.191V26.1a.615.615,0,0,0,1.231,0V19.015H7.76a.616.616,0,0,1,.615.615V29.66ZM10.224,4.968l4.92-1.318V5.93l-.412.111a.615.615,0,0,0-.435.754,1.659,1.659,0,0,1-1.172,2.029.615.615,0,0,0-.435.755l2.4,8.882H13.854l-.636-2.49a.614.614,0,0,0-.1-.216Zm4.92,3.784v5.192L14.022,9.789A2.883,2.883,0,0,0,15.144,8.752Zm8.84,21.523H12.321a1.87,1.87,0,0,1-1.229-.461l-1.486-1.3V20.008l2.686-2.686.487,1.906a.615.615,0,0,0,.6.463h12.1a.861.861,0,0,1,0,1.723h-6.2a.615.615,0,1,0,0,1.231H27.4a.861.861,0,0,1,0,1.723H19.275a.615.615,0,1,0,0,1.231h6.808a.861.861,0,1,1,0,1.723H19.275a.615.615,0,1,0,0,1.231h4.709a.861.861,0,1,1,0,1.723Zm6.3,0H25.89a2.085,2.085,0,0,0,0-1.723h.193a2.091,2.091,0,0,0,1.87-3.029,2.09,2.09,0,0,0,1.126-3.264v-7.8a.615.615,0,0,0-1.231,0v7a2.093,2.093,0,0,0-.449-.049h-.02a2.091,2.091,0,0,0-1.906-2.954h-.989a2.945,2.945,0,1,0-2.314,0H18.807V6.76a2.9,2.9,0,0,0,2.206-2.206h4.629A2.9,2.9,0,0,0,27.848,6.76V8.674a.615.615,0,1,0,1.231,0V6.211a.615.615,0,0,0-.615-.615,1.659,1.659,0,0,1-1.657-1.657.615.615,0,0,0-.615-.615H20.464a.615.615,0,0,0-.615.615A1.659,1.659,0,0,1,18.192,5.6a.615.615,0,0,0-.615.615v12.25h-1.2V1.231H30.281ZM23.328,17.467a1.714,1.714,0,1,1,1.714-1.714A1.716,1.716,0,0,1,23.328,17.467Z" transform="translate(-0.007)"/></g></g></svg>