<svg xmlns="http://www.w3.org/2000/svg" width="325.691" height="197.231" viewBox="0 0 325.691 197.231">
  <g id="Group_155" data-name="Group 155" transform="translate(-166 -1287.5)">
    <g id="Group_152" data-name="Group 152">
      <g id="undraw_online_video_ivvq" transform="translate(208 1275)">
        <path id="Path_299" data-name="Path 299" d="M228.894,164.965l-27.733-16.011v32.022l27.733-16.011-27.733-16.011v32.022Z" transform="translate(-122.613 -90.792)" fill="#fff"/>
        <g id="undraw_gone_shopping_vwmc" transform="translate(-42 65.173)">
          <path id="Path_246" data-name="Path 246" d="M649.022,406.335l1.814,4.232,11.125,14.752s7.618,8.222,3.386,8.706-7.013-7.618-7.013-7.618l-13.059-12.938-1.451-5.925Z" transform="translate(-602.542 -356.578)" fill="#d8aeb4"/>
          <path id="Path_247" data-name="Path 247" d="M698.625,340.168l1.753.491s7.87,20.908,7.145,23.447-3.99,5.683-5.441,5.441S698.625,340.168,698.625,340.168Z" transform="translate(-657.708 -307.581)" fill="#6f5081"/>
          <path id="Path_248" data-name="Path 248" d="M832.063,747.9s.77,3.857-1.544,2.313A11.193,11.193,0,0,1,827,745.682Z" transform="translate(-815.636 -607.865)" fill="#6f5081"/>
          <path id="Path_249" data-name="Path 249" d="M697.49,418.916s24.546,86.577,15.84,89.116-21.523-.242-21.4-1.935,2.3-35.187,2.3-35.187-12.7,44.5-28.416,34.1-12.213-12.334-10.762-13.059,23.337-35.187,23.216-41.6.242-26.481,2.9-29.5Z" transform="translate(-653.671 -365.894)" fill="#493853"/>
          <path id="Path_251" data-name="Path 251" d="M780.235,280.759a5.078,5.078,0,0,0,.631-6.846c.1.1.2.2.3.3a5.079,5.079,0,0,1-7.534,6.812c-.1-.106-.185-.215-.27-.327A5.078,5.078,0,0,0,780.235,280.759Z" transform="translate(-752.006 -258.519)" fill="#6f5081"/>
          <ellipse id="Ellipse_21" data-name="Ellipse 21" cx="10.459" cy="10.459" rx="10.459" ry="10.459" transform="translate(18.245 2.539)" fill="#6f5081"/>
          <path id="Path_252" data-name="Path 252" d="M672.266,760.936s2.781,2.781,0,2.781a11.194,11.194,0,0,1-5.441-1.814Z" transform="translate(-615.387 -619.16)" fill="#6f5081"/>
          <path id="Path_253" data-name="Path 253" d="M752.66,283.427s-1.814,7.5-.484,8.948a13.432,13.432,0,0,0,4.232,2.539l-.484,13.543s-5.562-1.935-5.8-2.177-5.2-8.1-5.2-8.1l-4.837-4.595s7.376-3.507,5.2-9.553S752.66,283.427,752.66,283.427Z" transform="translate(-717.305 -263.898)" fill="#d8aeb4"/>
          <ellipse id="Ellipse_22" data-name="Ellipse 22" cx="6.288" cy="6.288" rx="6.288" ry="6.288" transform="translate(25.682 23.235) rotate(-99.217)" fill="#d8aeb4"/>
          <path id="Path_254" data-name="Path 254" d="M727.741,352.876s-2.781-9.19-4.111-10.4-4.595-12.575-4.595-12.575,2.056-2.781,3.748-2.781,3.265.6,5.2,2.418a19.35,19.35,0,0,0,4.076,2.549,4.51,4.51,0,0,0,6.1-2.037,1.772,1.772,0,0,0,.1-1.721s4.474,1.209,4.716,2.9,0,5.2.363,5.925,1.451,1.814.967,6.409a45.879,45.879,0,0,0,.5,10.405C740.295,358.281,734.037,355.62,727.741,352.876Z" transform="translate(-700.245 -297.919)" fill="#6f5081"/>
          <ellipse id="Ellipse_23" data-name="Ellipse 23" cx="5.32" cy="3.628" rx="5.32" ry="3.628" transform="translate(25.621 6.771)" fill="#6f5081"/>
          <ellipse id="Ellipse_24" data-name="Ellipse 24" cx="5.079" cy="5.079" rx="5.079" ry="5.079" transform="translate(16.794 0)" fill="#6f5081"/>
          <path id="Path_255" data-name="Path 255" d="M805.972,234.855a5.078,5.078,0,0,0,5.06-4.655c.012.139.019.28.019.423a5.079,5.079,0,0,1-10.157,0v0c0-.143.007-.284.019-.423A5.078,5.078,0,0,0,805.972,234.855Z" transform="translate(-787.727 -226.149)" fill="#6f5081"/>
          <path id="Path_256" data-name="Path 256" d="M492.078,420.53h1.689l3.376,29.448-11.135-.374Z" transform="translate(-461.921 -334.152)" fill="#6c63ff"/>
          <path id="Path_257" data-name="Path 257" d="M492.078,420.53h1.689l3.376,29.448-11.135-.374Z" transform="translate(-461.921 -334.152)" fill="#fff" opacity="0.746" style="isolation: isolate"/>
          <path id="Path_258" data-name="Path 258" d="M520.681,419.08l2.063,29.637-25.272,1.876-2.063-28.887Z" transform="translate(-489.961 -333.079)" fill="#6f5081"/>
          <ellipse id="Ellipse_25" data-name="Ellipse 25" cx="0.376" cy="0.376" rx="0.376" ry="0.376" transform="translate(21.835 88.251)" opacity="0.2" style="isolation: isolate"/>
          <ellipse id="Ellipse_26" data-name="Ellipse 26" cx="0.376" cy="0.376" rx="0.376" ry="0.376" transform="translate(13.956 89.188)" opacity="0.2" style="isolation: isolate"/>
          <path id="Path_259" data-name="Path 259" d="M804.207,534.187h.187c0-.08-.132-7.992,4.411-8.722a2.39,2.39,0,0,1,2.175.6c1.876,1.861,1.1,7.115,1.093,7.167l.184.029c.034-.221.8-5.4-1.147-7.328a2.562,2.562,0,0,0-2.336-.657C804.073,526.031,804.2,534.107,804.207,534.187Z" transform="translate(-789.968 -444.62)" fill="#3f3d56"/>
          <path id="Path_260" data-name="Path 260" d="M800.3,402.142l.6,6.771-1.209,20.314s-2.781,10.278,1.451,10.036S803.8,428.5,803.8,428.5l1.935-23.579Z" transform="translate(-781.872 -353.472)" fill="#d8aeb4"/>
          <path id="Path_261" data-name="Path 261" d="M797.511,331.315l-3.144,1.693s-4.232,28.765-1.814,31.546,7.376,3.869,7.618,2.781,1.088-23.2,1.088-23.2Z" transform="translate(-775.578 -301.025)" fill="#6f5081"/>
        </g>
      </g>
      <g id="Group_151" data-name="Group 151" transform="translate(271 -24)">
        <path id="Path_361" data-name="Path 361" d="M451.637,683.5v5.756l-7.137.46.461-6.216Z" transform="translate(-243.493 779.441)" fill="#d8a7a7"/>
        <path id="Path_364" data-name="Path 364" d="M691.032,857.342s1.151-1.842,2.763-1.842,2.763,1.842,2.763,1.842L700.7,863.1s5.986,3.684,3.684,5.756-8.518.921-8.518.921-5.065-3.684-5.756-3.914a14.616,14.616,0,0,1-2.763-1.612c-.23-.23.461-8.518,1.151-7.943S689.651,858.723,691.032,857.342Z" transform="translate(-487.263 609.743)" fill="#6f5081"/>
        <path id="Path_370" data-name="Path 370" d="M699.936,655.9v-2.2a5.113,5.113,0,0,1-2.936-.959l.461-1.461a4.694,4.694,0,0,0,2.764.937,2.117,2.117,0,0,0,2.284-2.137c0-1.2-.748-1.94-2.169-2.594-1.958-.872-3.167-1.875-3.167-3.772a3.428,3.428,0,0,1,2.9-3.51V638h1.19v2.115a4.668,4.668,0,0,1,2.495.763l-.48,1.439a4.241,4.241,0,0,0-2.418-.741,1.842,1.842,0,0,0-2.034,1.875c0,1.134.71,1.7,2.38,2.486,1.977.916,2.975,2.049,2.975,3.99a3.648,3.648,0,0,1-3.032,3.706V655.9Z" transform="translate(-494.727 777.169)" fill="#fff"/>
        <g id="Group_150" data-name="Group 150">
          <path id="Path_359" data-name="Path 359" d="M612.632,317s.23,5.986-1.151,7.367,6.907,6.216,6.907,6.216l4.835-7.6s-1.842-3.223-1.381-5.986Z" transform="translate(-428.776 1024.267)" fill="#d8a7a7"/>
          <path id="Path_360" data-name="Path 360" d="M305.5,683.5v5.756l7.137.46-.46-6.216Z" transform="translate(-136.494 779.441)" fill="#d8a7a7"/>
          <path id="Path_362" data-name="Path 362" d="M552.078,564.276s-3.684,13.353-1.381,23.943c0,0,0,4.6.921,5.525s1.151.921.461,1.381-2.072,1.612-1.381,2.3.921,1.612.46,1.842a1.054,1.054,0,0,0-.46,1.612c.46.921-2.3,25.555-2.3,25.555s-2.763,2.993,0,3.223,7.367,1.381,7.828-.46,4.144-27.857,4.144-27.857.46-.691,1.381-1.842.46-1.612.46-1.842,4.835-22.1,4.835-22.1,7.137,24.864,7.828,25.325.921.461.921,1.151-.461,1.151,0,1.842a11.958,11.958,0,0,1,.691,1.151s1.151,25.785,3.453,25.785,9.209-.461,8.518-2.532-1.612-1.612-1.612-1.612,1.612-21.181-2.3-27.4v-5.065c0-.46.23-.691,0-1.151s.691-27.857-3.684-29.469S552.078,564.276,552.078,564.276Z" transform="translate(-379.389 834.892)" fill="#493853"/>
          <path id="Path_363" data-name="Path 363" d="M525.091,857.342s-1.151-1.842-2.763-1.842-2.763,1.842-2.763,1.842l-4.144,5.756s-5.986,3.684-3.684,5.756,8.518.921,8.518.921,5.065-3.684,5.756-3.914a14.614,14.614,0,0,0,2.763-1.612c.23-.23-.46-8.518-1.151-7.943S526.472,858.723,525.091,857.342Z" transform="translate(-351.711 609.743)" fill="#6f5081"/>
          <ellipse id="Ellipse_59" data-name="Ellipse 59" cx="8.288" cy="8.288" rx="8.288" ry="8.288" transform="translate(179.596 1328.029)" fill="#d8a7a7"/>
          <path id="Path_365" data-name="Path 365" d="M576.5,337.839s-1.549.085-2.271-2.26L562,344.515l5.065,13.583s.691,7.367,0,9.439a18.5,18.5,0,0,0-1.151,4.6c0,.921-4.835,16.346-2.993,17.037s29.929,3.453,30.62-1.151-2.3-34.994-2.3-34.994l4.835-11.741L584.319,333.6S583.181,338.3,576.5,337.839Z" transform="translate(-390.807 1011.486)" fill="#6f5081"/>
          <path id="Path_366" data-name="Path 366" d="M543.489,444.5l-.921,7.137a36.7,36.7,0,0,0-2.763,17.727l-.23,6.677s-2.3,11.511,2.3,11.972,1.612-12.662,1.612-12.662l2.533-6.216,2.592-13.828,1.321-9.655Z" transform="translate(-373.103 926.121)" fill="#d8a7a7"/>
          <path id="Path_367" data-name="Path 367" d="M559.884,379.5l-3.338.345s-2.187,16.231-1.5,16.231,8.518,1.842,8.748,1.381S559.884,379.5,559.884,379.5Z" transform="translate(-385.353 976.156)" fill="#6f5081"/>
          <path id="Path_368" data-name="Path 368" d="M597.041,242.477l-1.494-.543a10.624,10.624,0,0,1,7.47-2.852l-1.222-1.222a5.545,5.545,0,0,1,5.7,1.766,24.267,24.267,0,0,1,4.11,5.247h1.6l-.668,1.336,2.337,1.336-2.4-.24a6.741,6.741,0,0,1-.227,3.459l-.543,1.494a43.084,43.084,0,0,1-2.173-4.89v1.358s-1.494-1.222-1.494-2.037l-.815.951-.407-1.494-5.026,1.494.815-1.222-3.124.407,1.222-1.494s-3.531,1.766-3.667,3.26-1.9,3.4-1.9,3.4l-.815-1.358S593.1,244.515,597.041,242.477Z" transform="translate(-415.552 1085.344)" fill="#6f5081"/>
          <ellipse id="Ellipse_60" data-name="Ellipse 60" cx="15.368" cy="21.871" rx="15.368" ry="21.871" transform="translate(187.884 1402.162)" fill="#3f3d56"/>
          <ellipse id="Ellipse_61" data-name="Ellipse 61" cx="15.368" cy="21.871" rx="15.368" ry="21.871" transform="translate(187.884 1402.162)" fill="#493853" opacity="0.05"/>
          <ellipse id="Ellipse_62" data-name="Ellipse 62" cx="15.368" cy="21.871" rx="15.368" ry="21.871" transform="translate(189.956 1402.162)" fill="#4f3b5c"/>
          <path id="Path_369" data-name="Path 369" d="M13.18,0c7.279,0,13.18,8.4,13.18,18.759s-5.9,18.759-13.18,18.759S0,29.119,0,18.759,5.9,0,13.18,0Z" transform="translate(192.144 1405.274)" fill="#493853"/>
          <g id="Group_149" data-name="Group 149">
            <path id="Path_371" data-name="Path 371" d="M680.639,433.5v9.439s.23,11.511-3.684,18.648l-2.072,4.6s-4.144,13.353-6.677,9.209,2.763-11.051,2.763-11.051l3-17.525-1.845-11.714Z" transform="translate(-472.034 934.588)" fill="#d8a7a7"/>
          </g>
        </g>
        <path id="Path_372" data-name="Path 372" d="M684.342,364.5l4.489.576s5.41,16.461,4.029,17.152-10.36,1.151-10.36,1.151Z" transform="translate(-483.565 987.702)" fill="#6f5081"/>
      </g>
    </g>
    <g id="undraw_upload_image_iwej" transform="translate(137 1287.5)">
      <rect id="Rectangle_235" data-name="Rectangle 235" width="110.643" height="72.772" transform="translate(129.392 42.455)" fill="rgba(111,80,129,0.13)"/>
      <rect id="Rectangle_236" data-name="Rectangle 236" width="179.33" height="141.459" transform="translate(102.66 0.5)" fill="none" stroke="#3f3d56" stroke-miterlimit="10" stroke-width="1"/>
      <line id="Line_18" data-name="Line 18" x2="179" transform="translate(103 8.5)" fill="none" stroke="#3f3d56" stroke-miterlimit="10" stroke-width="1"/>
      <circle id="Ellipse_53" data-name="Ellipse 53" cx="1.856" cy="1.856" r="1.856" transform="translate(104.516 3.099)" fill="#f86b75"/>
      <circle id="Ellipse_54" data-name="Ellipse 54" cx="1.856" cy="1.856" r="1.856" transform="translate(109.714 3.099)" fill="#fad375"/>
      <circle id="Ellipse_55" data-name="Ellipse 55" cx="1.856" cy="1.856" r="1.856" transform="translate(114.912 3.099)" fill="#8bcc55"/>
      <circle id="Ellipse_56" data-name="Ellipse 56" cx="1.856" cy="1.856" r="1.856" transform="translate(105.259 1.985)" fill="none" stroke="#3f3d56" stroke-miterlimit="10" stroke-width="1"/>
      <circle id="Ellipse_57" data-name="Ellipse 57" cx="1.856" cy="1.856" r="1.856" transform="translate(110.457 1.985)" fill="none" stroke="#3f3d56" stroke-miterlimit="10" stroke-width="1"/>
      <circle id="Ellipse_58" data-name="Ellipse 58" cx="1.856" cy="1.856" r="1.856" transform="translate(115.655 1.985)" fill="none" stroke="#3f3d56" stroke-miterlimit="10" stroke-width="1"/>
    </g>
    <g id="Group_154" data-name="Group 154" transform="translate(-675 -311)">
      <rect id="Rectangle_242" data-name="Rectangle 242" width="110.049" height="71.549" transform="translate(949.042 1635.399)" fill="none" stroke="#3f3d56" stroke-width="1"/>
      <path id="Path_373" data-name="Path 373" d="M228.894,164.965l-27.733-16.011v32.022l27.733-16.011-27.733-16.011v32.022Z" transform="translate(791.334 1506.208)" fill="none" stroke="#3f3d56" stroke-width="1"/>
      <text id="LIVE" transform="translate(952 1642)" fill="#3f3d56" font-size="4" font-family="SourceSansPro-Bold, Source Sans Pro" font-weight="700"><tspan x="0" y="0">LIVE</tspan></text>
    </g>
  </g>
</svg>
