<svg id="undraw_invest_88iw" xmlns="http://www.w3.org/2000/svg" width="118.068" height="302.614" viewBox="0 0 118.068 302.614">
  <path id="Path_285" data-name="Path 285" d="M613.846,317s.444,11.55-2.221,14.215,13.327,11.994,13.327,11.994l9.329-14.659s-3.554-6.219-2.665-11.55Z" transform="translate(-566.853 -281.754)" fill="#d8a7a7"/>
  <path id="Path_286" data-name="Path 286" d="M305.5,683.5v11.105l13.771.888-.888-11.994Z" transform="translate(-287.159 -413.485)" fill="#d8a7a7"/>
  <path id="Path_287" data-name="Path 287" d="M458.271,683.5v11.105l-13.771.888.888-11.994Z" transform="translate(-364.412 -413.485)" fill="#d8a7a7"/>
  <path id="Path_288" data-name="Path 288" d="M556.643,565.451s-7.108,25.764-2.665,46.2c0,0,0,8.884,1.777,10.661s2.221,1.777.889,2.665-4,3.109-2.665,4.442,1.777,3.109.888,3.554-1.777,1.333-.888,3.109-4.442,49.308-4.442,49.308-5.331,5.775,0,6.219,14.215,2.665,15.1-.888,8-53.75,8-53.75.889-1.333,2.665-3.554.888-3.109.888-3.554,9.329-42.645,9.329-42.645,13.771,47.976,15.1,48.864,1.777.888,1.777,2.221-.888,2.221,0,3.554a23.074,23.074,0,0,1,1.333,2.221s2.221,49.752,6.663,49.752,17.769-.888,16.436-4.886-3.11-3.109-3.11-3.109,3.11-40.868-4.442-52.862V623.2c0-.888.444-1.333,0-2.221s1.333-53.75-7.108-56.86S556.643,565.451,556.643,565.451Z" transform="translate(-531.194 -418.484)" fill="#493853"/>
  <path id="Path_289" data-name="Path 289" d="M537.992,859.054s-2.221-3.554-5.331-3.554-5.331,3.554-5.331,3.554l-8,11.106s-11.55,7.108-7.107,11.105,16.436,1.777,16.436,1.777,9.773-7.108,11.106-7.552a28.2,28.2,0,0,0,5.331-3.11c.444-.444-.888-16.436-2.221-15.326S540.658,861.719,537.992,859.054Z" transform="translate(-511.211 -581.043)" fill="#6f5081"/>
  <path id="Path_290" data-name="Path 290" d="M694.5,859.054s2.221-3.554,5.331-3.554,5.331,3.554,5.331,3.554l8,11.106s11.55,7.108,7.107,11.105-16.436,1.777-16.436,1.777-9.773-7.108-11.105-7.552a28.206,28.206,0,0,1-5.331-3.11c-.444-.444.888-16.436,2.221-15.326S691.833,861.719,694.5,859.054Z" transform="translate(-609.08 -581.043)" fill="#6f5081"/>
  <ellipse id="Ellipse_38" data-name="Ellipse 38" cx="15.992" cy="15.992" rx="15.992" ry="15.992" transform="translate(38.775 9.703)" fill="#d8a7a7"/>
  <path id="Path_291" data-name="Path 291" d="M589.986,341.776s-2.989.165-4.382-4.36L562,354.658l9.773,26.209s1.333,14.215,0,18.213-2.221,7.108-2.221,8.884-9.329,31.539-5.775,32.872,57.748,6.663,59.081-2.221-4.442-67.521-4.442-67.521l9.329-22.655L605.065,333.6S602.868,342.664,589.986,341.776Z" transform="translate(-539.438 -290.982)" fill="#6f5081"/>
  <path id="Path_292" data-name="Path 292" d="M547.662,444.5l-1.777,13.771a70.817,70.817,0,0,0-5.331,34.2l-.444,12.882s-4.442,22.211,4.442,23.1,3.109-24.432,3.109-24.432l4.886-11.994,5-26.681,2.55-18.63Z" transform="translate(-526.655 -352.616)" fill="#d8a7a7"/>
  <path id="Path_293" data-name="Path 293" d="M564.5,379.5l-6.441.666s-4.22,31.317-2.888,31.317,16.436,3.554,16.88,2.665S564.5,379.5,564.5,379.5Z" transform="translate(-535.5 -316.49)" fill="#6f5081"/>
  <path id="Path_294" data-name="Path 294" d="M599.733,246.959l-2.883-1.048s6.028-6.028,14.414-5.5l-2.359-2.359s5.765-2.1,11.007,3.407c2.755,2.893,5.943,6.294,7.931,10.124h3.087l-1.288,2.577,4.51,2.577-4.629-.463a13,13,0,0,1-.438,6.674l-1.048,2.883s-4.193-8.386-4.193-9.435v2.621s-2.883-2.359-2.883-3.931l-1.572,1.834-.786-2.883-9.7,2.883,1.572-2.359-6.028.786,2.359-2.883s-6.814,3.407-7.076,6.29-3.669,6.552-3.669,6.552l-1.572-2.621S592.133,250.89,599.733,246.959Z" transform="translate(-557.305 -237.656)" fill="#6f5081"/>
  <ellipse id="Ellipse_39" data-name="Ellipse 39" cx="29.652" cy="42.201" rx="29.652" ry="42.201" transform="translate(54.767 152.742)" fill="#3f3d56"/>
  <ellipse id="Ellipse_40" data-name="Ellipse 40" cx="29.652" cy="42.201" rx="29.652" ry="42.201" transform="translate(54.767 152.742)" fill="#493853" opacity="0.05"/>
  <ellipse id="Ellipse_41" data-name="Ellipse 41" cx="29.652" cy="42.201" rx="29.652" ry="42.201" transform="translate(58.765 152.742)" fill="#4f3b5c"/>
  <path id="Path_298" data-name="Path 298" d="M25.431,0C39.477,0,50.863,16.2,50.863,36.195S39.477,72.389,25.431,72.389,0,56.184,0,36.195,11.386,0,25.431,0Z" transform="translate(62.985 158.748)" fill="#493853"/>
  <path id="Path_295" data-name="Path 295" d="M702.666,672.537v-4.249A9.866,9.866,0,0,1,697,666.437l.889-2.818a9.056,9.056,0,0,0,5.332,1.809,4.084,4.084,0,0,0,4.407-4.122c0-2.314-1.444-3.744-4.185-5.006-3.777-1.682-6.11-3.618-6.11-7.277a6.614,6.614,0,0,1,5.592-6.773V638h2.3v4.081a9.009,9.009,0,0,1,4.814,1.472l-.926,2.777a8.183,8.183,0,0,0-4.666-1.43,3.555,3.555,0,0,0-3.925,3.618c0,2.187,1.37,3.281,4.592,4.8,3.814,1.767,5.74,3.954,5.74,7.7A7.04,7.04,0,0,1,705,668.162v4.375Z" transform="translate(-614.469 -460.16)" fill="#fff"/>
  <path id="Path_296" data-name="Path 296" d="M692.832,433.5v18.213s.444,22.211-7.107,35.982l-4,8.884s-8,25.765-12.882,17.769,5.331-21.322,5.331-21.322l5.782-33.814-3.561-22.6Z" transform="translate(-598.085 -346.503)" fill="#d8a7a7"/>
  <path id="Path_297" data-name="Path 297" d="M686.054,364.5l8.662,1.111s10.439,31.762,7.774,33.094-19.99,2.221-19.99,2.221Z" transform="translate(-606.41 -308.154)" fill="#6f5081"/>
</svg>
