<svg xmlns="http://www.w3.org/2000/svg" width="268.332" height="189.23" viewBox="0 0 268.332 189.23">
  <g id="undraw_sign_in_e6hj" transform="translate(15.731 -17.5)">
    <g id="undraw_gone_shopping_vwmc" transform="translate(-15.731 44.917)">
      <path id="Path_246" data-name="Path 246" d="M649.643,406.335l2.03,4.737,12.452,16.513s8.527,9.2,3.79,9.745-7.85-8.527-7.85-8.527l-14.618-14.483-1.624-6.632Z" transform="translate(-597.615 -350.638)" fill="#d8aeb4"/>
      <path id="Path_247" data-name="Path 247" d="M698.625,340.168l1.962.549s8.81,23.4,8,26.246-4.467,6.362-6.091,6.091S698.625,340.168,698.625,340.168Z" transform="translate(-652.823 -303.691)" fill="#6f5081"/>
      <path id="Path_248" data-name="Path 248" d="M832.667,748.162s.862,4.317-1.728,2.59a12.53,12.53,0,0,1-3.94-5.069Z" transform="translate(-814.279 -591.413)" fill="#6f5081"/>
      <path id="Path_249" data-name="Path 249" d="M702.721,418.916s27.477,96.912,17.731,99.754-24.093-.271-23.957-2.166,2.572-39.388,2.572-39.388-14.212,49.81-31.808,38.169-13.67-13.806-12.046-14.618,26.123-39.387,25.987-46.561.271-29.642,3.248-33.026Z" transform="translate(-653.671 -359.565)" fill="#493853"/>
      <path id="Path_251" data-name="Path 251" d="M781.055,281.577a5.684,5.684,0,0,0,.706-7.664c.114.107.226.219.333.337a5.685,5.685,0,0,1-8.433,7.625c-.107-.118-.207-.241-.3-.366A5.684,5.684,0,0,0,781.055,281.577Z" transform="translate(-749.457 -256.681)" fill="#6f5081"/>
      <ellipse id="Ellipse_21" data-name="Ellipse 21" cx="11.708" cy="11.708" rx="11.708" ry="11.708" transform="translate(20.423 2.842)" fill="#6f5081"/>
      <path id="Path_252" data-name="Path 252" d="M672.915,760.936s3.113,3.113,0,3.113a12.53,12.53,0,0,1-6.091-2.03Z" transform="translate(-609.247 -602.236)" fill="#6f5081"/>
      <path id="Path_253" data-name="Path 253" d="M754.161,283.7s-2.03,8.392-.541,10.016a15.036,15.036,0,0,0,4.737,2.842l-.542,15.159s-6.226-2.166-6.5-2.436-5.82-9.069-5.82-9.069l-5.414-5.143s8.256-3.925,5.82-10.693S754.161,283.7,754.161,283.7Z" transform="translate(-714.586 -261.836)" fill="#d8aeb4"/>
      <ellipse id="Ellipse_22" data-name="Ellipse 22" cx="7.038" cy="7.038" rx="7.038" ry="7.038" transform="translate(28.748 26.008) rotate(-99.217)" fill="#d8aeb4"/>
      <path id="Path_254" data-name="Path 254" d="M728.78,355.951s-3.113-10.287-4.6-11.64-5.143-14.077-5.143-14.077,2.3-3.113,4.2-3.113,3.655.677,5.82,2.707a21.659,21.659,0,0,0,4.563,2.854,5.048,5.048,0,0,0,6.833-2.281,1.983,1.983,0,0,0,.109-1.926s5.008,1.354,5.279,3.249,0,5.82.406,6.632,1.624,2.03,1.083,7.174a51.356,51.356,0,0,0,.565,11.647C742.833,362,735.828,359.023,728.78,355.951Z" transform="translate(-698.003 -294.433)" fill="#6f5081"/>
      <ellipse id="Ellipse_23" data-name="Ellipse 23" cx="5.955" cy="4.061" rx="5.955" ry="4.061" transform="translate(28.68 7.58)" fill="#6f5081"/>
      <ellipse id="Ellipse_24" data-name="Ellipse 24" cx="5.685" cy="5.685" rx="5.685" ry="5.685" transform="translate(18.799 0)" fill="#6f5081"/>
      <path id="Path_255" data-name="Path 255" d="M806.578,235.411a5.684,5.684,0,0,0,5.664-5.21c.013.156.021.313.021.473a5.685,5.685,0,0,1-11.37,0v0c0-.16.008-.317.021-.474A5.684,5.684,0,0,0,806.578,235.411Z" transform="translate(-786.155 -225.665)" fill="#6f5081"/>
      <path id="Path_256" data-name="Path 256" d="M492.8,420.53h1.891l3.779,32.963-12.464-.418Z" transform="translate(-459.046 -323.841)" fill="#6c63ff"/>
      <path id="Path_257" data-name="Path 257" d="M492.8,420.53h1.891l3.779,32.963-12.464-.418Z" transform="translate(-459.046 -323.841)" fill="#fff" opacity="0.746" style="isolation: isolate"/>
      <path id="Path_258" data-name="Path 258" d="M523.7,419.08l2.309,33.175-28.289,2.1-2.309-32.336Z" transform="translate(-489.311 -322.813)" fill="#6f5081"/>
      <ellipse id="Ellipse_25" data-name="Ellipse 25" cx="0.421" cy="0.421" rx="0.421" ry="0.421" transform="translate(24.441 98.786)" opacity="0.2" style="isolation: isolate"/>
      <ellipse id="Ellipse_26" data-name="Ellipse 26" cx="0.421" cy="0.421" rx="0.421" ry="0.421" transform="translate(15.622 99.835)" opacity="0.2" style="isolation: isolate"/>
      <path id="Path_259" data-name="Path 259" d="M804.208,535.256h.209c0-.09-.148-8.947,4.938-9.763a2.675,2.675,0,0,1,2.434.674c2.1,2.083,1.232,7.965,1.223,8.023l.206.032c.038-.247.892-6.048-1.284-8.2a2.868,2.868,0,0,0-2.614-.735C804.057,526.127,804.2,535.166,804.208,535.256Z" transform="translate(-788.269 -434.998)" fill="#3f3d56"/>
      <path id="Path_260" data-name="Path 260" d="M800.478,402.142l.677,7.58L799.8,432.46s-3.113,11.5,1.624,11.234,2.978-12.046,2.978-12.046l2.166-26.394Z" transform="translate(-779.851 -347.662)" fill="#d8aeb4"/>
      <path id="Path_261" data-name="Path 261" d="M798.192,331.315l-3.519,1.895s-4.737,32.2-2.03,35.312,8.256,4.331,8.527,3.113,1.218-25.972,1.218-25.972Z" transform="translate(-773.641 -297.409)" fill="#6f5081"/>
    </g>
    <g id="undraw_upload_image_iwej" transform="translate(-29.89 17.5)">
      <rect id="Rectangle_235" data-name="Rectangle 235" width="110.643" height="72.772" transform="translate(129.392 42.455)" fill="rgba(111,80,129,0.13)"/>
      <rect id="Rectangle_236" data-name="Rectangle 236" width="179.33" height="141.459" transform="translate(102.66 0.5)" fill="none" stroke="#3f3d56" stroke-miterlimit="10" stroke-width="1"/>
      <line id="Line_18" data-name="Line 18" x2="179" transform="translate(103 8.5)" fill="none" stroke="#3f3d56" stroke-miterlimit="10" stroke-width="1"/>
      <circle id="Ellipse_53" data-name="Ellipse 53" cx="1.856" cy="1.856" r="1.856" transform="translate(104.516 3.099)" fill="#f86b75"/>
      <circle id="Ellipse_54" data-name="Ellipse 54" cx="1.856" cy="1.856" r="1.856" transform="translate(109.714 3.099)" fill="#fad375"/>
      <circle id="Ellipse_55" data-name="Ellipse 55" cx="1.856" cy="1.856" r="1.856" transform="translate(114.912 3.099)" fill="#8bcc55"/>
      <circle id="Ellipse_56" data-name="Ellipse 56" cx="1.856" cy="1.856" r="1.856" transform="translate(105.259 1.985)" fill="none" stroke="#3f3d56" stroke-miterlimit="10" stroke-width="1"/>
      <circle id="Ellipse_57" data-name="Ellipse 57" cx="1.856" cy="1.856" r="1.856" transform="translate(110.457 1.985)" fill="none" stroke="#3f3d56" stroke-miterlimit="10" stroke-width="1"/>
      <circle id="Ellipse_58" data-name="Ellipse 58" cx="1.856" cy="1.856" r="1.856" transform="translate(115.655 1.985)" fill="none" stroke="#3f3d56" stroke-miterlimit="10" stroke-width="1"/>
      <rect id="Rectangle_237" data-name="Rectangle 237" width="110.643" height="72.772" transform="translate(138.118 34.472)" fill="none" stroke="#3f3d56" stroke-miterlimit="10" stroke-width="1"/>
      <rect id="Rectangle_238" data-name="Rectangle 238" width="20.421" height="5.569" transform="translate(226.483 123.209)" fill="#6f5081"/>
      <rect id="Rectangle_239" data-name="Rectangle 239" width="20.421" height="5.569" transform="translate(228.34 121.724)" fill="none" stroke="#3f3d56" stroke-miterlimit="10" stroke-width="1"/>
      <rect id="Rectangle_240" data-name="Rectangle 240" width="77.643" height="6.772" transform="translate(149.117 62.473)" fill="none" stroke="#3f3d56" stroke-miterlimit="10" stroke-width="1"/>
      <rect id="Rectangle_241" data-name="Rectangle 241" width="77.643" height="6.772" transform="translate(149.117 75.473)" fill="none" stroke="#3f3d56" stroke-miterlimit="10" stroke-width="1"/>
    </g>
  </g>
</svg>
