<svg xmlns="http://www.w3.org/2000/svg" width="251.403" height="236.114" viewBox="0 0 251.403 236.114">
  <g id="Group_153" data-name="Group 153" transform="translate(-228.087 -566.5)">
    <g id="undraw_upload_image_iwej" transform="translate(197 566.5)">
      <rect id="Rectangle_235" data-name="Rectangle 235" width="110.643" height="72.772" transform="translate(129.392 42.455)" fill="rgba(111,80,129,0.13)"/>
      <rect id="Rectangle_236" data-name="Rectangle 236" width="179.33" height="141.459" transform="translate(102.66 0.5)" fill="none" stroke="#3f3d56" stroke-miterlimit="10" stroke-width="1"/>
      <line id="Line_18" data-name="Line 18" x2="179" transform="translate(103 8.5)" fill="none" stroke="#3f3d56" stroke-miterlimit="10" stroke-width="1"/>
      <circle id="Ellipse_53" data-name="Ellipse 53" cx="1.856" cy="1.856" r="1.856" transform="translate(104.516 3.099)" fill="#f86b75"/>
      <circle id="Ellipse_54" data-name="Ellipse 54" cx="1.856" cy="1.856" r="1.856" transform="translate(109.714 3.099)" fill="#fad375"/>
      <circle id="Ellipse_55" data-name="Ellipse 55" cx="1.856" cy="1.856" r="1.856" transform="translate(114.912 3.099)" fill="#8bcc55"/>
      <circle id="Ellipse_56" data-name="Ellipse 56" cx="1.856" cy="1.856" r="1.856" transform="translate(105.259 1.985)" fill="none" stroke="#3f3d56" stroke-miterlimit="10" stroke-width="1"/>
      <circle id="Ellipse_57" data-name="Ellipse 57" cx="1.856" cy="1.856" r="1.856" transform="translate(110.457 1.985)" fill="none" stroke="#3f3d56" stroke-miterlimit="10" stroke-width="1"/>
      <circle id="Ellipse_58" data-name="Ellipse 58" cx="1.856" cy="1.856" r="1.856" transform="translate(115.655 1.985)" fill="none" stroke="#3f3d56" stroke-miterlimit="10" stroke-width="1"/>
      <rect id="Rectangle_237" data-name="Rectangle 237" width="110.643" height="72.772" transform="translate(138.118 34.472)" fill="none" stroke="#3f3d56" stroke-miterlimit="10" stroke-width="1"/>
      <rect id="Rectangle_238" data-name="Rectangle 238" width="20.421" height="5.569" transform="translate(226.483 123.209)" fill="#6f5081"/>
      <rect id="Rectangle_239" data-name="Rectangle 239" width="20.421" height="5.569" transform="translate(228.34 121.724)" fill="none" stroke="#3f3d56" stroke-miterlimit="10" stroke-width="1"/>
      <path id="Path_357" data-name="Path 357" d="M709.565,293.516l-8.543-8.8a1.942,1.942,0,0,0-1.428-.574h-.026a1.942,1.942,0,0,0-1.428.574l-8.543,8.8a1.885,1.885,0,0,0,0,2.754,2.109,2.109,0,0,0,2.882,0l5.062-5.292v13.643a2.042,2.042,0,0,0,4.08,0V290.978l5.062,5.292a2.109,2.109,0,0,0,2.882,0,1.885,1.885,0,0,0,0-2.754Z" transform="translate(-514.868 -216.514)" fill="#6f5081"/>
    </g>
    <g id="undraw_invest_88iw" transform="translate(228.087 628.513)">
      <path id="Path_285" data-name="Path 285" d="M612.776,317s.256,6.645-1.278,8.178,7.667,6.9,7.667,6.9l5.367-8.434S622.487,320.067,623,317Z" transform="translate(-585.739 -296.722)" fill="#d8a7a7"/>
      <path id="Path_286" data-name="Path 286" d="M305.5,683.5v6.389l7.923.511-.511-6.9Z" transform="translate(-294.948 -528.154)" fill="#d8a7a7"/>
      <path id="Path_287" data-name="Path 287" d="M452.423,683.5v6.389l-7.923.511.511-6.9Z" transform="translate(-398.424 -528.154)" fill="#d8a7a7"/>
      <path id="Path_288" data-name="Path 288" d="M552.619,564.415s-4.089,14.823-1.533,26.579c0,0,0,5.111,1.022,6.134s1.278,1.022.511,1.533-2.3,1.789-1.533,2.556,1.022,1.789.511,2.044a1.17,1.17,0,0,0-.511,1.789c.511,1.022-2.556,28.368-2.556,28.368s-3.067,3.322,0,3.578,8.178,1.533,8.689-.511,4.6-30.924,4.6-30.924.511-.767,1.533-2.045.511-1.789.511-2.045,5.367-24.535,5.367-24.535,7.923,27.6,8.689,28.113,1.022.511,1.022,1.278-.511,1.278,0,2.045a13.27,13.27,0,0,1,.767,1.278s1.278,28.624,3.833,28.624,10.223-.511,9.456-2.811-1.789-1.789-1.789-1.789,1.789-23.512-2.556-30.413v-5.623c0-.511.256-.767,0-1.278s.767-30.924-4.089-32.713S552.619,564.415,552.619,564.415Z" transform="translate(-537.977 -479.862)" fill="#493853"/>
      <path id="Path_289" data-name="Path 289" d="M526.619,857.544s-1.278-2.044-3.067-2.044-3.067,2.044-3.067,2.044l-4.6,6.389s-6.645,4.089-4.089,6.389,9.456,1.022,9.456,1.022,5.623-4.089,6.389-4.345a16.223,16.223,0,0,0,3.067-1.789c.256-.256-.511-9.456-1.278-8.817S528.152,859.078,526.619,857.544Z" transform="translate(-511.211 -697.598)" fill="#6f5081"/>
      <path id="Path_290" data-name="Path 290" d="M691.443,857.544s1.278-2.044,3.067-2.044,3.067,2.044,3.067,2.044l4.6,6.389s6.645,4.089,4.089,6.389-9.456,1.022-9.456,1.022-5.622-4.089-6.389-4.345a16.223,16.223,0,0,1-3.067-1.789c-.256-.256.511-9.456,1.278-8.817S689.91,859.078,691.443,857.544Z" transform="translate(-642.3 -697.598)" fill="#6f5081"/>
      <ellipse id="Ellipse_38" data-name="Ellipse 38" cx="9.2" cy="9.2" rx="9.2" ry="9.2" transform="translate(22.308 5.583)" fill="#d8a7a7"/>
      <path id="Path_291" data-name="Path 291" d="M578.1,338.305s-1.719.095-2.521-2.508L562,345.717l5.623,15.079s.767,8.178,0,10.478a20.535,20.535,0,0,0-1.278,5.111c0,1.022-5.367,18.145-3.322,18.912s33.224,3.834,33.991-1.278-2.556-38.847-2.556-38.847l5.367-13.034L586.776,333.6S585.512,338.816,578.1,338.305Z" transform="translate(-549.02 -309.082)" fill="#6f5081"/>
      <path id="Path_292" data-name="Path 292" d="M543.984,444.5l-1.022,7.923a40.743,40.743,0,0,0-3.067,19.679l-.256,7.411s-2.556,12.778,2.556,13.29,1.789-14.056,1.789-14.056l2.811-6.9,2.878-15.35,1.467-10.718Z" transform="translate(-531.898 -391.637)" fill="#d8a7a7"/>
      <path id="Path_293" data-name="Path 293" d="M560.431,379.5l-3.706.383S554.3,397.9,555.064,397.9s9.456,2.045,9.712,1.533S560.431,379.5,560.431,379.5Z" transform="translate(-543.745 -343.249)" fill="#6f5081"/>
      <path id="Path_294" data-name="Path 294" d="M597.36,243.008l-1.659-.6a11.794,11.794,0,0,1,8.293-3.166l-1.357-1.357a6.155,6.155,0,0,1,6.333,1.96,26.939,26.939,0,0,1,4.563,5.825h1.776l-.741,1.483,2.595,1.483-2.663-.266a7.483,7.483,0,0,1-.252,3.84l-.6,1.659a47.827,47.827,0,0,1-2.412-5.428v1.508s-1.659-1.357-1.659-2.262l-.9,1.055-.452-1.659-5.579,1.659.9-1.357-3.468.452,1.357-1.659s-3.92,1.96-4.071,3.619-2.111,3.769-2.111,3.769l-.9-1.508S592.988,245.27,597.36,243.008Z" transform="translate(-572.95 -237.656)" fill="#6f5081"/>
      <ellipse id="Ellipse_39" data-name="Ellipse 39" cx="17.059" cy="24.279" rx="17.059" ry="24.279" transform="translate(31.509 87.876)" fill="#3f3d56"/>
      <ellipse id="Ellipse_40" data-name="Ellipse 40" cx="17.059" cy="24.279" rx="17.059" ry="24.279" transform="translate(31.509 87.876)" fill="#493853" opacity="0.05"/>
      <ellipse id="Ellipse_41" data-name="Ellipse 41" cx="17.059" cy="24.279" rx="17.059" ry="24.279" transform="translate(33.809 87.876)" fill="#4f3b5c"/>
      <path id="Path_298" data-name="Path 298" d="M14.631,0c8.081,0,14.631,9.323,14.631,20.824S22.712,41.647,14.631,41.647,0,32.324,0,20.824,6.551,0,14.631,0Z" transform="translate(36.237 91.331)" fill="#493853"/>
      <path id="Path_295" data-name="Path 295" d="M700.26,657.87v-2.444a5.675,5.675,0,0,1-3.26-1.065l.511-1.621a5.209,5.209,0,0,0,3.068,1.041,2.35,2.35,0,0,0,2.535-2.372c0-1.331-.831-2.154-2.407-2.88-2.173-.968-3.515-2.081-3.515-4.187a3.805,3.805,0,0,1,3.217-3.9V638h1.321v2.348a5.182,5.182,0,0,1,2.77.847l-.532,1.6a4.709,4.709,0,0,0-2.684-.823,2.045,2.045,0,0,0-2.258,2.081c0,1.258.788,1.888,2.642,2.759,2.194,1.016,3.3,2.275,3.3,4.429a4.05,4.05,0,0,1-3.366,4.114v2.517Z" transform="translate(-649.518 -535.684)" fill="#fff"/>
      <path id="Path_296" data-name="Path 296" d="M682.083,433.5v10.478s.256,12.778-4.089,20.7l-2.3,5.111s-4.6,14.823-7.411,10.223,3.067-12.267,3.067-12.267l3.327-19.454-2.049-13Z" transform="translate(-627.573 -383.448)" fill="#d8a7a7"/>
      <path id="Path_297" data-name="Path 297" d="M684.544,364.5l4.984.639s6.006,18.273,4.472,19.04-11.5,1.278-11.5,1.278Z" transform="translate(-638.724 -332.083)" fill="#6f5081"/>
    </g>
  </g>
</svg>
