<svg id="undraw_gone_shopping_vwmc" xmlns="http://www.w3.org/2000/svg" width="138.918" height="313.365" viewBox="0 0 138.918 313.365">
  <path id="Path_246" data-name="Path 246" d="M655.094,406.335l3.932,9.174,24.115,31.979s16.514,17.824,7.339,18.873-15.2-16.514-15.2-16.514L646.968,421.8l-3.145-12.844Z" transform="translate(-554.337 -298.473)" fill="#d8aeb4"/>
  <path id="Path_247" data-name="Path 247" d="M698.625,340.168l3.8,1.064s17.061,45.323,15.488,50.827-8.65,12.32-11.8,11.8S698.625,340.168,698.625,340.168Z" transform="translate(-609.926 -269.526)" fill="#6f5081"/>
  <path id="Path_248" data-name="Path 248" d="M837.975,750.485s1.669,8.361-3.346,5.015S827,745.682,827,745.682Z" transform="translate(-802.366 -446.927)" fill="#fff"/>
  <path id="Path_249" data-name="Path 249" d="M748.661,418.916S801.871,606.595,783,612.1s-46.658-.524-46.4-4.194,4.98-76.277,4.98-76.277-27.523,96.46-61.6,73.918-26.474-26.736-23.329-28.309,50.589-76.277,50.327-90.169.524-57.4,6.291-63.957Z" transform="translate(-653.671 -303.976)" fill="#493853"/>
  <path id="Path_251" data-name="Path 251" d="M788.263,288.754a11.008,11.008,0,0,0,1.368-14.841c.221.208.438.424.646.653a11.009,11.009,0,0,1-16.332,14.767c-.208-.229-.4-.467-.585-.708A11.008,11.008,0,0,0,788.263,288.754Z" transform="translate(-727.07 -240.542)" fill="#6f5081"/>
  <ellipse id="Ellipse_21" data-name="Ellipse 21" cx="22.673" cy="22.673" rx="22.673" ry="22.673" transform="translate(39.552 5.505)" fill="#6f5081"/>
  <path id="Path_252" data-name="Path 252" d="M678.62,760.936s6.029,6.029,0,6.029-11.8-3.932-11.8-3.932Z" transform="translate(-555.321 -453.6)" fill="#fff"/>
  <path id="Path_253" data-name="Path 253" d="M767.345,286.053s-3.932,16.252-1.049,19.4,9.174,5.5,9.174,5.5l-1.049,29.358s-12.057-4.194-12.582-4.718-11.271-17.562-11.271-17.562l-10.485-9.961s15.989-7.6,11.271-20.708S767.345,286.053,767.345,286.053Z" transform="translate(-690.704 -243.72)" fill="#d8aeb4"/>
  <ellipse id="Ellipse_22" data-name="Ellipse 22" cx="13.63" cy="13.63" rx="13.63" ry="13.63" transform="translate(55.673 50.367) rotate(-99.217)" fill="#d8aeb4"/>
  <path id="Path_254" data-name="Path 254" d="M737.908,382.953S731.879,363.031,729,360.41s-9.961-27.261-9.961-27.261,4.456-6.029,8.126-6.029,7.077,1.311,11.271,5.242c1.975,1.852,5.577,3.889,8.836,5.526a9.776,9.776,0,0,0,13.233-4.417c.652-1.385.866-2.711.211-3.731,0,0,9.7,2.621,10.223,6.291s0,11.271.786,12.844,3.146,3.932,2.1,13.892,1.094,22.556,1.094,22.556C765.121,394.668,751.556,388.9,737.908,382.953Z" transform="translate(-678.304 -263.819)" fill="#6f5081"/>
  <ellipse id="Ellipse_23" data-name="Ellipse 23" cx="11.533" cy="7.864" rx="11.533" ry="7.864" transform="translate(55.541 14.679)" fill="#6f5081"/>
  <ellipse id="Ellipse_24" data-name="Ellipse 24" cx="11.009" cy="11.009" rx="11.009" ry="11.009" transform="translate(36.406 0)" fill="#6f5081"/>
  <path id="Path_255" data-name="Path 255" d="M811.9,240.291A11.007,11.007,0,0,0,822.87,230.2c.025.3.041.607.041.916a11.009,11.009,0,0,1-22.018.009v-.009c0-.309.016-.615.041-.917A11.008,11.008,0,0,0,811.9,240.291Z" transform="translate(-772.351 -221.419)" fill="#6f5081"/>
  <path id="Path_256" data-name="Path 256" d="M499.165,420.53h3.662l7.319,63.836-24.138-.81Z" transform="translate(-433.793 -233.284)" fill="#6c63ff"/>
  <path id="Path_257" data-name="Path 257" d="M499.165,420.53h3.662l7.319,63.836-24.138-.81Z" transform="translate(-433.793 -233.284)" fill="#fff" opacity="0.746" style="isolation: isolate"/>
  <path id="Path_258" data-name="Path 258" d="M550.193,419.08l4.472,64.247-54.785,4.067-4.472-62.621Z" transform="translate(-483.6 -232.65)" fill="#6f5081"/>
  <ellipse id="Ellipse_25" data-name="Ellipse 25" cx="0.816" cy="0.816" rx="0.816" ry="0.816" transform="translate(47.332 191.307)" opacity="0.2" style="isolation: isolate"/>
  <ellipse id="Ellipse_26" data-name="Ellipse 26" cx="0.816" cy="0.816" rx="0.816" ry="0.816" transform="translate(30.254 193.338)" opacity="0.2" style="isolation: isolate"/>
  <path id="Path_259" data-name="Path 259" d="M804.208,544.645h.405c0-.174-.287-17.326,9.563-18.907a5.18,5.18,0,0,1,4.714,1.305c4.067,4.033,2.385,15.425,2.368,15.537l.4.062c.073-.478,1.727-11.712-2.486-15.886a5.553,5.553,0,0,0-5.063-1.423C803.916,526.965,804.2,544.471,804.208,544.645Z" transform="translate(-773.341 -350.486)" fill="#3f3d56"/>
  <path id="Path_260" data-name="Path 260" d="M802.052,402.142l1.311,14.679-2.621,44.036s-6.029,22.28,3.146,21.756,5.767-23.329,5.767-23.329l4.194-51.114Z" transform="translate(-762.107 -296.638)" fill="#d8aeb4"/>
  <path id="Path_261" data-name="Path 261" d="M804.172,331.315l-6.815,3.67s-9.174,62.355-3.932,68.384,15.989,8.388,16.514,6.029,2.359-50.3,2.359-50.3Z" transform="translate(-756.626 -265.653)" fill="#6f5081"/>
</svg>
