<svg xmlns="http://www.w3.org/2000/svg" width="104" height="125.378" viewBox="0 0 104 125.378"><defs><style>.a{fill:#4d5c7d;}.b{fill:#e69871;}.c{fill:#d17e5a;}.d{fill:#c67458;}.e{fill:#fcd462;}.f{fill:#44c4a1;}.g{fill:#ebf0f3;}</style></defs><g transform="translate(-27.052 -21.307)"><path class="a" d="M76.517,86.495h7.438v4.091H76.517Z" transform="translate(42.569 56.1)"/><path class="a" d="M29.365,86.495H36.8v4.091H29.365Z" transform="translate(1.991 56.1)"/><path class="b" d="M27.052,21.307h104V143.415h-104Z" transform="translate(0 0)"/><path class="c" d="M0,0H111.233V93.126H0Z" transform="translate(125.615 26.744) rotate(90)"/><g transform="translate(29.897 53.478)"><path class="b" d="M28.581,38.6H126.5v4.708H28.581Z" transform="translate(-28.581 -38.598)"/><path class="b" d="M28.581,57.312H126.5V62.02H28.581Z" transform="translate(-28.581 -22.493)"/><path class="b" d="M53.456,57.983H58.81v51.2H53.456Z" transform="translate(-7.174 -21.915)"/></g><path class="a" d="M59.273,67.64h3.669V81.269H59.273Z" transform="translate(27.729 39.873)"/><path class="a" d="M48.755,67.64h3.669V81.269H48.755Z" transform="translate(18.677 39.873)"/><path class="d" d="M123.1,24.229,29.974,50.964H123.1Z" transform="translate(2.515 2.515)"/><path class="d" d="M123.1,42.943,29.974,69.678H123.1Z" transform="translate(2.515 18.62)"/><path class="e" d="M31.364,26.619h8.2V48.907h-8.2Z" transform="translate(3.711 4.572)"/><path class="f" d="M36.392,26.619h8.2V48.907h-8.2Z" transform="translate(8.038 4.572)"/><path class="a" d="M0,0H8.2V22.287H0Z" transform="translate(53.055 31.618) rotate(-11.478)"/><path class="e" d="M72.55,45.705h6.214V67.3H72.55Z" transform="translate(39.155 20.997)"/><path class="f" d="M68.5,45.705h6.214V67.3H68.5Z" transform="translate(35.668 20.997)"/><path class="g" d="M64.446,45.705H70.66V67.3H64.446Z" transform="translate(32.18 20.997)"/><path class="a" d="M60.393,45.705h6.214V67.3H60.393Z" transform="translate(28.693 20.997)"/><path class="e" d="M56.341,45.705h6.214V67.3H56.341Z" transform="translate(25.205 20.997)"/></g></svg>