<svg xmlns="http://www.w3.org/2000/svg" width="31.197" height="25.338" viewBox="0 0 31.197 25.338"><defs><style>.a{fill:#6f5081;}</style></defs><path class="a" d="M27.991,54.4c.02.277.02.554.02.831,0,8.453-6.433,18.192-18.192,18.192A18.069,18.069,0,0,1,0,70.55a13.227,13.227,0,0,0,1.544.079A12.805,12.805,0,0,0,9.482,67.9,6.405,6.405,0,0,1,3.5,63.463a8.064,8.064,0,0,0,1.208.1,6.763,6.763,0,0,0,1.683-.218,6.4,6.4,0,0,1-5.127-6.275V56.99a6.439,6.439,0,0,0,2.89.812,6.4,6.4,0,0,1-1.98-8.552,18.174,18.174,0,0,0,13.184,6.691,7.218,7.218,0,0,1-.158-1.465A6.4,6.4,0,0,1,26.268,50.1a12.588,12.588,0,0,0,4.058-1.544,6.377,6.377,0,0,1-2.811,3.524,12.818,12.818,0,0,0,3.682-.99A13.744,13.744,0,0,1,27.991,54.4Z" transform="translate(0 -48.082)"/></svg>