<svg xmlns="http://www.w3.org/2000/svg" width="25.508" height="25.508" viewBox="0 0 25.508 25.508"><defs><style>.a{fill:#6f5081;}</style></defs><path class="a" d="M21.687,35.707A12.644,12.644,0,0,0,1.794,50.96L0,57.508l6.7-1.759a12.6,12.6,0,0,0,6.041,1.537h.006a12.56,12.56,0,0,0,8.939-21.579Zm-8.939,19.45A10.487,10.487,0,0,1,7.4,53.693l-.381-.228L3.04,54.507,4.1,50.63l-.251-.4a10.526,10.526,0,1,1,19.524-5.586A10.623,10.623,0,0,1,12.748,55.156Zm5.762-7.869c-.313-.159-1.868-.922-2.158-1.025s-.5-.159-.712.159-.814,1.025-1,1.241-.37.239-.683.08a8.6,8.6,0,0,1-4.3-3.758c-.325-.558.325-.518.928-1.725a.585.585,0,0,0-.028-.552c-.08-.159-.712-1.714-.974-2.346-.256-.615-.518-.53-.712-.541s-.393-.011-.6-.011a1.17,1.17,0,0,0-.843.393,3.549,3.549,0,0,0-1.1,2.636,6.187,6.187,0,0,0,1.287,3.268A14.114,14.114,0,0,0,13,49.878c2,.865,2.79.939,3.792.791a3.235,3.235,0,0,0,2.129-1.5,2.642,2.642,0,0,0,.182-1.5C19.034,47.521,18.824,47.441,18.51,47.288Z" transform="translate(0 -32)"/></svg>